<svg xmlns="http://www.w3.org/2000/svg" viewBox="0 0 360 120" width="360" height="120" role="img" aria-hidden="true">
  <rect width="360" height="120" rx="6" fill="#E3F3EC"/>

  <!-- 1. Navy trousers, gold shoes — two legs, knee break -->
  <rect x="32" y="6" width="42" height="14" rx="4" fill="#1F3854"/>
  <path fill="#1F3854" d="M34 18h16l-2 28 1 36h-14l1-36z"/>
  <path fill="#1F3854" d="M56 18h16l2 28-1 36h-14l-2-36z"/>
  <rect x="32" y="80" width="20" height="8" rx="2" fill="#C6A15B"/>
  <rect x="56" y="80" width="20" height="8" rx="2" fill="#C6A15B"/>

  <!-- 2. Mint trousers, navy shoes — stride, left forward -->
  <rect x="108" y="4" width="44" height="14" rx="4" fill="#8FCBB3"/>
  <path fill="#8FCBB3" d="M110 16h17l-4 30 2 36h-15l1-36z"/>
  <path fill="#8FCBB3" d="M133 16h17l6 26 2 40h-16l-4-40z"/>
  <rect x="106" y="80" width="21" height="8" rx="2" fill="#1F3854"/>
  <rect x="138" y="78" width="21" height="8" rx="2" fill="#1F3854"/>

  <!-- 3. Gold trousers, mint shoes — feet together -->
  <rect x="196" y="8" width="40" height="13" rx="4" fill="#C6A15B"/>
  <path fill="#C6A15B" d="M198 19h15l-1 27 1 36h-14l1-36z"/>
  <path fill="#C6A15B" d="M217 19h15l2 27-1 36h-14l-1-36z"/>
  <rect x="196" y="80" width="19" height="8" rx="2" fill="#8FCBB3"/>
  <rect x="216" y="80" width="19" height="8" rx="2" fill="#8FCBB3"/>

  <!-- 4. Navy trousers, gold shoes, mint cuff -->
  <rect x="276" y="6" width="42" height="14" rx="4" fill="#1F3854"/>
  <path fill="#1F3854" d="M278 18h16l-1 28 2 34h-15l1-34z"/>
  <path fill="#1F3854" d="M300 18h16l3 26 1 36h-15l-2-36z"/>
  <rect x="279" y="74" width="15" height="5" rx="2" fill="#8FCBB3"/>
  <rect x="304" y="74" width="15" height="5" rx="2" fill="#8FCBB3"/>
  <rect x="276" y="80" width="20" height="8" rx="2" fill="#C6A15B"/>
  <rect x="300" y="80" width="20" height="8" rx="2" fill="#C6A15B"/>
</svg>
